<?xml version="1.0" encoding="UTF-8"?>
<svg id="mdi-numeric-2-circle" width="24" height="24" version="1.1" viewBox="0 0 24 24" xmlns="http://www.w3.org/2000/svg" xmlns:cc="http://creativecommons.org/ns#" xmlns:dc="http://purl.org/dc/elements/1.1/" xmlns:rdf="http://www.w3.org/1999/02/22-rdf-syntax-ns#">
 <metadata>
  <rdf:RDF>
   <cc:Work rdf:about="">
    <dc:format>image/svg+xml</dc:format>
    <dc:type rdf:resource="http://purl.org/dc/dcmitype/StillImage"/>
    <dc:title/>
   </cc:Work>
  </rdf:RDF>
 </metadata>
 <path d="m9 7v2h4v2h-2a2 2 0 0 0-2 2v4h2 4v-2h-4v-2h2a2 2 0 0 0 2-2v-2a2 2 0 0 0-2-2h-4m3-5a10 10 0 0 1 10 10 10 10 0 0 1-10 10 10 10 0 0 1-10-10 10 10 0 0 1 10-10z" fill="#843B62" fill-opacity=".85" stroke="#6B818C" stroke-width=".1"/>
 <path d="m9.0679 14.851c0-1.9931 0.00281-2.1089 0.056309-2.3181 0.16744-0.65467 0.64563-1.1626 1.3025-1.3835l0.22884-0.07695 2.4172-0.02014v-2.1129h-4.0048v-1.891l2.124 0.010479c1.9218 0.00948 2.1403 0.015259 2.2956 0.060696 0.69756 0.20409 1.2147 0.72993 1.3893 1.4127 0.05047 0.19734 0.05526 0.3244 0.05526 1.4656 0 1.1412-0.0048 1.2682-0.05526 1.4656-0.17007 0.66496-0.64126 1.1665-1.3035 1.3876l-0.22884 0.07638-2.4172 0.0212v2.1124h4.0048v1.888h-5.8641z" fill="#fff" stroke-width=".028606"/>
</svg>
