<?xml version="1.0" encoding="UTF-8"?>
<svg id="mdi-numeric-9-circle" width="24" height="24" version="1.1" viewBox="0 0 24 24" xmlns="http://www.w3.org/2000/svg" xmlns:cc="http://creativecommons.org/ns#" xmlns:dc="http://purl.org/dc/elements/1.1/" xmlns:rdf="http://www.w3.org/1999/02/22-rdf-syntax-ns#">
 <metadata>
  <rdf:RDF>
   <cc:Work rdf:about="">
    <dc:format>image/svg+xml</dc:format>
    <dc:type rdf:resource="http://purl.org/dc/dcmitype/StillImage"/>
    <dc:title/>
   </cc:Work>
  </rdf:RDF>
 </metadata>
 <path d="m12 2a10 10 0 0 1 10 10 10 10 0 0 1-10 10 10 10 0 0 1-10-10 10 10 0 0 1 10-10m1 15a2 2 0 0 0 2-2v-6a2 2 0 0 0-2-2h-2a2 2 0 0 0-2 2v2a2 2 0 0 0 2 2h2v2h-4v2h4m0-6h-2v-2h2v2z" fill="#843B62" fill-opacity=".85" stroke="#6B818C" stroke-width=".1"/>
 <path d="m9.0679 16.006v-0.94549h4.0048v-2.1124l-2.4172-0.0212-0.22884-0.07638c-0.66224-0.22104-1.1334-0.72262-1.3035-1.3876-0.050471-0.19734-0.055262-0.3244-0.055262-1.4656 0-1.1412 0.00479-1.2682 0.055262-1.4656 0.17629-0.68928 0.70113-1.2182 1.4036-1.4145 0.16707-0.046692 0.31655-0.051966 1.4732-0.051966s1.3061 0.00527 1.4732 0.051965c0.70249 0.19633 1.2273 0.72526 1.4036 1.4145 0.05302 0.20731 0.05526 0.34794 0.05526 3.4679 0 3.12-0.0022 3.2606-0.05526 3.4679-0.17474 0.68321-0.68859 1.2055-1.3893 1.4122-0.15589 0.04599-0.36644 0.05159-2.2956 0.06111l-2.124 0.01048zm4.0048-6.0087v-1.0584h-2.1454v2.1168h2.1454z" fill="#fff" stroke-width=".028606"/>
</svg>
