<?xml version="1.0" encoding="UTF-8"?>
<svg id="mdi-numeric-7-circle" width="24" height="24" version="1.1" viewBox="0 0 24 24" xmlns="http://www.w3.org/2000/svg" xmlns:cc="http://creativecommons.org/ns#" xmlns:dc="http://purl.org/dc/elements/1.1/" xmlns:rdf="http://www.w3.org/1999/02/22-rdf-syntax-ns#">
 <metadata>
  <rdf:RDF>
   <cc:Work rdf:about="">
    <dc:format>image/svg+xml</dc:format>
    <dc:type rdf:resource="http://purl.org/dc/dcmitype/StillImage"/>
    <dc:title/>
   </cc:Work>
  </rdf:RDF>
 </metadata>
 <path d="M11,17L15,9V7H9V9H13L9,17H11M12,2A10,10 0 0,1 22,12A10,10 0 0,1 12,22A10,10 0 0,1 2,12A10,10 0 0,1 12,2Z" fill="#843B62" fill-opacity=".85" stroke="#6B818C" stroke-width=".1"/>
 <path d="m11.085 12.973c1.0935-2.1869 1.9881-3.989 1.9881-4.0048 0-0.018852-0.68463-0.028646-2.0024-0.028646h-2.0024v-1.888h5.8641v1.9453l-3.9762 7.9522h-1.8594z" fill="#fff" stroke-width=".028606"/>
</svg>
