<?xml version="1.0" encoding="UTF-8"?>
<svg id="mdi-numeric-6-circle" width="24" height="24" version="1.1" viewBox="0 0 24 24" xmlns="http://www.w3.org/2000/svg" xmlns:cc="http://creativecommons.org/ns#" xmlns:dc="http://purl.org/dc/elements/1.1/" xmlns:rdf="http://www.w3.org/1999/02/22-rdf-syntax-ns#">
 <metadata>
  <rdf:RDF>
   <cc:Work rdf:about="">
    <dc:format>image/svg+xml</dc:format>
    <dc:type rdf:resource="http://purl.org/dc/dcmitype/StillImage"/>
    <dc:title/>
   </cc:Work>
  </rdf:RDF>
 </metadata>
 <path d="m11 7a2 2 0 0 0-2 2v6a2 2 0 0 0 2 2h2a2 2 0 0 0 2-2v-2a2 2 0 0 0-2-2h-2v-2h4v-2h-4m0 6h2v2h-2v-2m1-11a10 10 0 0 1 10 10 10 10 0 0 1-10 10 10 10 0 0 1-10-10 10 10 0 0 1 10-10z" fill="#843B62" fill-opacity=".85" stroke="#6B818C" stroke-width=".1"/>
 <path d="m10.74 16.92c-0.77945-0.10728-1.4206-0.68294-1.6173-1.4522-0.053021-0.20731-0.055262-0.34794-0.055262-3.4679 0-3.12 0.00224-3.2606 0.055262-3.4679 0.17461-0.68273 0.69176-1.2086 1.3893-1.4127 0.1553-0.045437 0.37381-0.051215 2.2956-0.060696l2.124-0.010479v1.891h-4.0048v2.1129l2.4172 0.02014 0.22884 0.07667c0.66498 0.2228 1.133 0.72107 1.3035 1.3879 0.05047 0.19734 0.05526 0.3244 0.05526 1.4656s-0.0048 1.2682-0.05526 1.4656c-0.17481 0.68352-0.69335 1.2102-1.3893 1.4112-0.14846 0.04287-0.33382 0.05059-1.3731 0.05715-0.66079 0.0042-1.2791-0.0031-1.3739-0.01615zm2.3322-2.9177v-1.0584h-1.0318c-0.85612 0-1.0388 7e-3 -1.0727 0.04086-0.03388 0.03388-0.04087 0.21468-0.04087 1.0584v1.0175h2.1454z" fill="#fff" stroke-width=".028606"/>
</svg>
