<?xml version="1.0" encoding="UTF-8"?>
<svg id="mdi-numeric-3-circle" width="24" height="24" version="1.1" viewBox="0 0 24 24" xmlns="http://www.w3.org/2000/svg" xmlns:cc="http://creativecommons.org/ns#" xmlns:dc="http://purl.org/dc/elements/1.1/" xmlns:rdf="http://www.w3.org/1999/02/22-rdf-syntax-ns#">
 <metadata>
  <rdf:RDF>
   <cc:Work rdf:about="">
    <dc:format>image/svg+xml</dc:format>
    <dc:type rdf:resource="http://purl.org/dc/dcmitype/StillImage"/>
    <dc:title/>
   </cc:Work>
  </rdf:RDF>
 </metadata>
 <path d="m15 15v-1.5a1.5 1.5 0 0 0-1.5-1.5 1.5 1.5 0 0 0 1.5-1.5v-1.5c0-1.11-0.9-2-2-2h-4v2h4v2h-2v2h2v2h-4v2h4a2 2 0 0 0 2-2m-3-13a10 10 0 0 1 10 10 10 10 0 0 1-10 10 10 10 0 0 1-10-10 10 10 0 0 1 10-10z" fill="#843B62" fill-opacity=".85" stroke="#6B818C" stroke-width=".1"/>
 <path d="m9.0679 16.006v-0.94549h4.0048v-2.1168h-2.0024v-1.888h2.0024v-2.1168h-4.0048v-1.891l2.124 0.010479c1.9218 0.00948 2.1403 0.015259 2.2956 0.060696 0.69756 0.20409 1.2147 0.72993 1.3893 1.4127 0.04935 0.19294 0.05523 0.32047 0.05492 1.1912-2.57e-4 0.75369-0.0096 1.01-0.04122 1.1287-0.1482 0.55681-0.60478 0.97018-1.178 1.0665-0.16001 0.02689-0.21077 0.04651-0.21077 0.08147s0.05075 0.05458 0.21077 0.08147c0.57457 0.09655 1.0294 0.50833 1.178 1.0665 0.03159 0.1187 0.04096 0.37506 0.04122 1.1287 3.04e-4 0.87076-0.0056 0.99829-0.05492 1.1912-0.17474 0.68321-0.68859 1.2055-1.3893 1.4122-0.15589 0.04599-0.36644 0.05159-2.2956 0.06111l-2.124 0.01048z" fill="#fff" stroke-width=".028606"/>
</svg>
