<?xml version="1.0" encoding="UTF-8"?>
<svg id="mdi-numeric-8-circle" width="24" height="24" version="1.1" viewBox="0 0 24 24" xmlns="http://www.w3.org/2000/svg" xmlns:cc="http://creativecommons.org/ns#" xmlns:dc="http://purl.org/dc/elements/1.1/" xmlns:rdf="http://www.w3.org/1999/02/22-rdf-syntax-ns#">
 <metadata>
  <rdf:RDF>
   <cc:Work rdf:about="">
    <dc:format>image/svg+xml</dc:format>
    <dc:type rdf:resource="http://purl.org/dc/dcmitype/StillImage"/>
    <dc:title/>
   </cc:Work>
  </rdf:RDF>
 </metadata>
 <path d="m11 13h2v2h-2v-2m0-4h2v2h-2v-2m0 8h2a2 2 0 0 0 2-2v-1.5a1.5 1.5 0 0 0-1.5-1.5 1.5 1.5 0 0 0 1.5-1.5v-1.5c0-1.11-0.9-2-2-2h-2a2 2 0 0 0-2 2v1.5a1.5 1.5 0 0 0 1.5 1.5 1.5 1.5 0 0 0-1.5 1.5v1.5c0 1.11 0.9 2 2 2m1-15a10 10 0 0 1 10 10 10 10 0 0 1-10 10 10 10 0 0 1-10-10 10 10 0 0 1 10-10z" fill="#843B62" fill-opacity=".85" stroke="#6B818C" stroke-width=".1"/>
 <path d="m10.74 16.92c-0.7814-0.10755-1.4201-0.68101-1.6173-1.4522-0.049346-0.19294-0.055225-0.32047-0.054922-1.1912 2.624e-4 -0.75369 0.00962-1.01 0.041217-1.1287 0.1482-0.55681 0.60478-0.97018 1.178-1.0665 0.16001-0.02689 0.21077-0.04651 0.21077-0.08147s-0.05075-0.05458-0.21077-0.08147c-0.57318-0.09631-1.0298-0.50968-1.178-1.0665-0.031594-0.1187-0.040955-0.37506-0.041217-1.1287-3.031e-4 -0.87076 0.0055767-0.99829 0.054922-1.1912 0.17629-0.68928 0.70113-1.2182 1.4036-1.4145 0.16707-0.046692 0.31655-0.051966 1.4732-0.051966s1.3061 0.00527 1.4732 0.051965c0.70249 0.19633 1.2273 0.72526 1.4036 1.4145 0.04935 0.19294 0.05523 0.32047 0.05492 1.1912-2.57e-4 0.75369-0.0096 1.01-0.04122 1.1287-0.1482 0.55681-0.60478 0.97018-1.178 1.0665-0.16001 0.02689-0.21077 0.04651-0.21077 0.08147s0.05075 0.05458 0.21077 0.08147c0.57457 0.09655 1.0294 0.50833 1.178 1.0665 0.03159 0.1187 0.04096 0.37506 0.04122 1.1287 3.04e-4 0.87076-0.0056 0.99829-0.05492 1.1912-0.17481 0.68352-0.69335 1.2102-1.3893 1.4112-0.14846 0.04287-0.33382 0.05059-1.3731 0.05715-0.66079 0.0042-1.2791-0.0031-1.3739-0.01615zm2.3322-2.9177v-1.0584h-1.0318c-0.85612 0-1.0388 7e-3 -1.0727 0.04086-0.03388 0.03388-0.04087 0.21468-0.04087 1.0584v1.0175h2.1454zm0-4.0048v-1.0584h-1.0318c-0.85612 0-1.0388 0.00696-1.0727 0.040865-0.03388 0.033885-0.04087 0.21468-0.04087 1.0584v1.0175h2.1454z" fill="#fff" stroke-width=".028606"/>
</svg>
