<svg id="mdi-numeric-0-circle" width="24" height="24" version="1.1" viewBox="0 0 24 24" xmlns="http://www.w3.org/2000/svg">
 <path d="m11 7a2 2 0 0 0-2 2v6a2 2 0 0 0 2 2h2a2 2 0 0 0 2-2v-6a2 2 0 0 0-2-2h-2m0 2h2v6h-2v-6m1-7a10 10 0 0 1 10 10 10 10 0 0 1-10 10 10 10 0 0 1-10-10 10 10 0 0 1 10-10z" fill="#843B62" fill-opacity=".85" stroke="#6B818C" stroke-width=".1"/>
 <path d="m10.74 16.92c-0.77945-0.10728-1.4206-0.68294-1.6173-1.4522-0.053021-0.20731-0.055262-0.34794-0.055262-3.4679 0-3.12 0.00224-3.2606 0.055262-3.4679 0.17629-0.68928 0.70113-1.2182 1.4036-1.4145 0.16707-0.046692 0.31655-0.051966 1.4732-0.051966s1.3061 0.00527 1.4732 0.051965c0.70249 0.19633 1.2273 0.72526 1.4036 1.4145 0.05302 0.20731 0.05526 0.34794 0.05526 3.4679 0 3.12-0.0022 3.2606-0.05526 3.4679-0.17481 0.68352-0.69335 1.2102-1.3893 1.4112-0.14846 0.04287-0.33382 0.05059-1.3731 0.05715-0.66079 0.0042-1.2791-0.0031-1.3739-0.01615zm2.3322-4.9201v-3.0608h-1.0318c-0.85612 0-1.0388 0.00696-1.0727 0.040865-0.0349 0.0349-0.04087 0.48166-0.04087 3.0608v3.0199h2.1454z" fill="#fff" stroke-width=".028606"/>
</svg>
