<?xml version="1.0" encoding="UTF-8"?>
<svg id="mdi-numeric-10-circle" width="24" height="24" version="1.1" viewBox="0 0 24 24" xmlns="http://www.w3.org/2000/svg" xmlns:cc="http://creativecommons.org/ns#" xmlns:dc="http://purl.org/dc/elements/1.1/" xmlns:rdf="http://www.w3.org/1999/02/22-rdf-syntax-ns#">
 <metadata>
  <rdf:RDF>
   <cc:Work rdf:about="">
    <dc:format>image/svg+xml</dc:format>
    <dc:type rdf:resource="http://purl.org/dc/dcmitype/StillImage"/>
    <dc:title/>
   </cc:Work>
  </rdf:RDF>
 </metadata>
 <path d="m14 9h2v6h-2v-6m8 3c0 5.5-4.5 10-10 10s-10-4.5-10-10 4.5-10 10-10 10 4.5 10 10m-12-5h-4v2h2v8h2v-10m8 2c0-1.1-0.89-2-2-2h-2c-1.1 0-2 0.9-2 2v6c0 1.11 0.9 2 2 2h2c1.11 0 2-0.89 2-2v-6z" fill="#843B62" fill-opacity=".85" stroke="#6B818C" stroke-width=".1"/>
 <path d="m8.0667 12.944v-4.0048h-2.0024v-1.888h3.8617v9.8975h-1.8594z" fill="#fff" stroke-width=".028606"/>
 <path d="m13.741 16.92c-0.4027-0.05522-0.78429-0.24161-1.0827-0.52884-0.21825-0.21008-0.36514-0.43538-0.48294-0.74066l-0.08948-0.23192-0.0081-3.3182c-0.0089-3.6763-0.01588-3.5224 0.17676-3.9219 0.25459-0.52798 0.70274-0.90055 1.2759-1.0607 0.16693-0.046653 0.31607-0.051965 1.4589-0.051965 1.1446 0 1.2937 0.00533 1.4792 0.052868 0.54704 0.1402 1.0246 0.53019 1.2664 1.0341 0.20963 0.4369 0.20079 0.26754 0.20079 3.8474 0 3.5481 7e-3 3.4039-0.18485 3.8188-0.18387 0.3977-0.50032 0.72379-0.88536 0.9123-0.39725 0.19449-0.41634 0.19673-1.7474 0.20514-0.66079 0.0042-1.2805-0.0032-1.3771-0.01649zm2.3211-4.9198v-3.0465l-1.0243-0.00751c-0.861-0.00632-1.0309-9.407e-4 -1.0656 0.033714-0.03538 0.03538-0.04123 0.46966-0.04123 3.0615v3.0203l2.1311-0.015z" fill="#fff" stroke-width=".028606"/>
</svg>
