<?xml version="1.0" encoding="UTF-8"?>
<svg id="mdi-numeric-5-circle" width="24" height="24" version="1.1" viewBox="0 0 24 24" xmlns="http://www.w3.org/2000/svg" xmlns:cc="http://creativecommons.org/ns#" xmlns:dc="http://purl.org/dc/elements/1.1/" xmlns:rdf="http://www.w3.org/1999/02/22-rdf-syntax-ns#">
 <metadata>
  <rdf:RDF>
   <cc:Work rdf:about="">
    <dc:format>image/svg+xml</dc:format>
    <dc:type rdf:resource="http://purl.org/dc/dcmitype/StillImage"/>
    <dc:title/>
   </cc:Work>
  </rdf:RDF>
 </metadata>
 <path d="m9 7v6h4v2h-4v2h4a2 2 0 0 0 2-2v-2a2 2 0 0 0-2-2h-2v-2h4v-2h-6m3-5a10 10 0 0 1 10 10 10 10 0 0 1-10 10 10 10 0 0 1-10-10 10 10 0 0 1 10-10z" fill="#843B62" fill-opacity=".85" stroke="#6B818C" stroke-width=".1"/>
 <path d="m9.0679 16.006v-0.94549h4.0048v-2.1168h-4.0048v-5.8927h5.8641v1.888h-4.0048v2.1129l2.4172 0.02014 0.22884 0.07667c0.66498 0.2228 1.133 0.72107 1.3035 1.3879 0.05047 0.19734 0.05526 0.3244 0.05526 1.4656s-0.0048 1.2682-0.05526 1.4656c-0.17474 0.68321-0.68859 1.2055-1.3893 1.4122-0.15589 0.04599-0.36644 0.05159-2.2956 0.06111l-2.124 0.01048z" fill="#fff" stroke-width=".028606"/>
</svg>
